<!--?xml version="1.0" encoding="utf-8"?-->
<!-- Generator: Adobe Illustrator 22.0.1, SVG Export Plug-In . SVG Version: 6.00 Build 0)  -->
<svg version="1.1" id="Layer_2" xmlns="http://www.w3.org/2000/svg" xmlns:xlink="http://www.w3.org/1999/xlink" x="0px" y="0px" viewBox="0 0 278.7 300" style="" xml:space="preserve">
<style type="text/css">
	.st0{fill:none;stroke:#FFFFFF;stroke-width:7.8936;stroke-linecap:round;stroke-linejoin:round;stroke-miterlimit:10;}
	.st1{fill:none;stroke:#FFFFFF;stroke-width:7.3943;stroke-linecap:round;stroke-linejoin:round;stroke-miterlimit:10;}
	.st2{fill:none;stroke:#FFFFFF;stroke-width:7.8936;stroke-linejoin:round;stroke-miterlimit:10;}
	.st3{fill:none;stroke:#FFFFFF;stroke-width:10.5249;stroke-linecap:round;stroke-linejoin:round;stroke-miterlimit:10;}
</style>
<g>
	<path class="st0 dKEgiYqm_0" d="M81.6,140.4c-1.6,18,5,35.4,18.2,47.7c7.5,7,11.8,16.7,11.8,26.7v3.6v19.3c0,7,5.5,12.8,12.4,13.2
		c1.8,6,7.8,11.8,15.1,11.8s13.3-5.8,15.1-11.8c6.9-0.5,12.4-6.2,12.4-13.2v-19.3v-3.6c0-10,4.3-19.8,11.8-26.7
		c13.2-12.3,19.9-29.6,18.2-47.7c-2.5-27.9-25.5-50.4-53.4-52.3c-2.8-0.2-5.4-0.2-8.2,0C107.1,90,84.1,112.5,81.6,140.4z"></path>
	<path class="st1 dKEgiYqm_1" d="M139.2,101.5c1,0,2.1,0,3.2,0.1c7.1,0.5,13.7,2.7,19.5,6.2"></path>
	<path class="st1 dKEgiYqm_2" d="M170.8,114.9c3.3,3.4,6.1,7.3,8.2,11.6"></path>
	<path class="st2 dKEgiYqm_3" d="M115.6,216.6L162.6,216.6"></path>
	<path class="st2 dKEgiYqm_4" d="M115.6,234.4L162.7,234.4"></path>
	<path class="st0 dKEgiYqm_5" d="M121.2,163.1"></path>
	<path class="st2 dKEgiYqm_6" d="M147,212.6v-59.7v0c0-5.6,4.6-10.2,10.2-10.2s10.2,4.6,10.2,10.2s-4.6,10.2-10.2,10.2h-18c0,0-18,0-18,0
		c-5.6,0-10.2-4.6-10.2-10.2s4.6-10.2,10.2-10.2s10.2,4.6,10.2,10.2l0,0v59.8"></path>
	<g>
		<g>
			<path class="st3 dKEgiYqm_7" d="M139.1,37.8L139.1,54.7"></path>
			<path class="st3 dKEgiYqm_8" d="M77,57.5L86.8,71.3"></path>
			<path class="st3 dKEgiYqm_9" d="M37.3,110.1L53.3,115.7"></path>
			<path class="st3 dKEgiYqm_10" d="M35.6,176L51.9,171.2"></path>
			<path class="st3 dKEgiYqm_11" d="M73.9,231.6L84.2,218"></path>
		</g>
		<g>
			<path class="st3 dKEgiYqm_12" d="M201.3,57.5L191.5,71.3"></path>
			<path class="st3 dKEgiYqm_13" d="M241,110.1L224.9,115.7"></path>
			<path class="st3 dKEgiYqm_14" d="M242.7,176L226.3,171.2"></path>
			<path class="st3 dKEgiYqm_15" d="M204.4,231.6L194.1,218"></path>
		</g>
	</g>
</g>
<style>.dKEgiYqm_0{stroke-dasharray:464 466;stroke-dashoffset:465;animation:dKEgiYqm_draw_0 4100ms linear 0ms infinite,dKEgiYqm_fade 4100ms linear 0ms infinite;}.dKEgiYqm_1{stroke-dasharray:24 26;stroke-dashoffset:25;animation:dKEgiYqm_draw_1 4100ms linear 0ms infinite,dKEgiYqm_fade 4100ms linear 0ms infinite;}.dKEgiYqm_2{stroke-dasharray:15 17;stroke-dashoffset:16;animation:dKEgiYqm_draw_2 4100ms linear 0ms infinite,dKEgiYqm_fade 4100ms linear 0ms infinite;}.dKEgiYqm_3{stroke-dasharray:48 50;stroke-dashoffset:49;animation:dKEgiYqm_draw_3 4100ms linear 0ms infinite,dKEgiYqm_fade 4100ms linear 0ms infinite;}.dKEgiYqm_4{stroke-dasharray:48 50;stroke-dashoffset:49;animation:dKEgiYqm_draw_4 4100ms linear 0ms infinite,dKEgiYqm_fade 4100ms linear 0ms infinite;}.dKEgiYqm_5{stroke-dasharray:0 2;stroke-dashoffset:1;animation:dKEgiYqm_draw_5 4100ms linear 0ms infinite,dKEgiYqm_fade 4100ms linear 0ms infinite;}.dKEgiYqm_6{stroke-dasharray:252 254;stroke-dashoffset:253;animation:dKEgiYqm_draw_6 4100ms linear 0ms infinite,dKEgiYqm_fade 4100ms linear 0ms infinite;}.dKEgiYqm_7{stroke-dasharray:17 19;stroke-dashoffset:18;animation:dKEgiYqm_draw_7 4100ms linear 0ms infinite,dKEgiYqm_fade 4100ms linear 0ms infinite;}.dKEgiYqm_8{stroke-dasharray:17 19;stroke-dashoffset:18;animation:dKEgiYqm_draw_8 4100ms linear 0ms infinite,dKEgiYqm_fade 4100ms linear 0ms infinite;}.dKEgiYqm_9{stroke-dasharray:17 19;stroke-dashoffset:18;animation:dKEgiYqm_draw_9 4100ms linear 0ms infinite,dKEgiYqm_fade 4100ms linear 0ms infinite;}.dKEgiYqm_10{stroke-dasharray:17 19;stroke-dashoffset:18;animation:dKEgiYqm_draw_10 4100ms linear 0ms infinite,dKEgiYqm_fade 4100ms linear 0ms infinite;}.dKEgiYqm_11{stroke-dasharray:18 20;stroke-dashoffset:19;animation:dKEgiYqm_draw_11 4100ms linear 0ms infinite,dKEgiYqm_fade 4100ms linear 0ms infinite;}.dKEgiYqm_12{stroke-dasharray:17 19;stroke-dashoffset:18;animation:dKEgiYqm_draw_12 4100ms linear 0ms infinite,dKEgiYqm_fade 4100ms linear 0ms infinite;}.dKEgiYqm_13{stroke-dasharray:18 20;stroke-dashoffset:19;animation:dKEgiYqm_draw_13 4100ms linear 0ms infinite,dKEgiYqm_fade 4100ms linear 0ms infinite;}.dKEgiYqm_14{stroke-dasharray:18 20;stroke-dashoffset:19;animation:dKEgiYqm_draw_14 4100ms linear 0ms infinite,dKEgiYqm_fade 4100ms linear 0ms infinite;}.dKEgiYqm_15{stroke-dasharray:18 20;stroke-dashoffset:19;animation:dKEgiYqm_draw_15 4100ms linear 0ms infinite,dKEgiYqm_fade 4100ms linear 0ms infinite;}@keyframes dKEgiYqm_draw{100%{stroke-dashoffset:0;}}@keyframes dKEgiYqm_fade{0%{stroke-opacity:1;}90.2439024390244%{stroke-opacity:1;}100%{stroke-opacity:0;}}@keyframes dKEgiYqm_draw_0{9.75609756097561%{stroke-dashoffset: 465}58.536585365853654%{ stroke-dashoffset: 0;}100%{ stroke-dashoffset: 0;}}@keyframes dKEgiYqm_draw_1{11.382113821138212%{stroke-dashoffset: 25}60.162601626016254%{ stroke-dashoffset: 0;}100%{ stroke-dashoffset: 0;}}@keyframes dKEgiYqm_draw_2{13.008130081300814%{stroke-dashoffset: 16}61.78861788617886%{ stroke-dashoffset: 0;}100%{ stroke-dashoffset: 0;}}@keyframes dKEgiYqm_draw_3{14.634146341463413%{stroke-dashoffset: 49}63.41463414634146%{ stroke-dashoffset: 0;}100%{ stroke-dashoffset: 0;}}@keyframes dKEgiYqm_draw_4{16.260162601626018%{stroke-dashoffset: 49}65.04065040650407%{ stroke-dashoffset: 0;}100%{ stroke-dashoffset: 0;}}@keyframes dKEgiYqm_draw_5{17.88617886178862%{stroke-dashoffset: 1}66.66666666666667%{ stroke-dashoffset: 0;}100%{ stroke-dashoffset: 0;}}@keyframes dKEgiYqm_draw_6{19.51219512195122%{stroke-dashoffset: 253}68.29268292682927%{ stroke-dashoffset: 0;}100%{ stroke-dashoffset: 0;}}@keyframes dKEgiYqm_draw_7{21.138211382113823%{stroke-dashoffset: 18}69.91869918699187%{ stroke-dashoffset: 0;}100%{ stroke-dashoffset: 0;}}@keyframes dKEgiYqm_draw_8{22.764227642276424%{stroke-dashoffset: 18}71.54471544715447%{ stroke-dashoffset: 0;}100%{ stroke-dashoffset: 0;}}@keyframes dKEgiYqm_draw_9{24.390243902439025%{stroke-dashoffset: 18}73.17073170731707%{ stroke-dashoffset: 0;}100%{ stroke-dashoffset: 0;}}@keyframes dKEgiYqm_draw_10{26.01626016260163%{stroke-dashoffset: 18}74.79674796747969%{ stroke-dashoffset: 0;}100%{ stroke-dashoffset: 0;}}@keyframes dKEgiYqm_draw_11{27.642276422764233%{stroke-dashoffset: 19}76.42276422764228%{ stroke-dashoffset: 0;}100%{ stroke-dashoffset: 0;}}@keyframes dKEgiYqm_draw_12{29.268292682926827%{stroke-dashoffset: 18}78.04878048780488%{ stroke-dashoffset: 0;}100%{ stroke-dashoffset: 0;}}@keyframes dKEgiYqm_draw_13{30.89430894308943%{stroke-dashoffset: 19}79.67479674796749%{ stroke-dashoffset: 0;}100%{ stroke-dashoffset: 0;}}@keyframes dKEgiYqm_draw_14{32.520325203252035%{stroke-dashoffset: 19}81.30081300813008%{ stroke-dashoffset: 0;}100%{ stroke-dashoffset: 0;}}@keyframes dKEgiYqm_draw_15{34.146341463414636%{stroke-dashoffset: 19}82.92682926829268%{ stroke-dashoffset: 0;}100%{ stroke-dashoffset: 0;}}</style></svg>
