<!--?xml version="1.0" encoding="utf-8"?-->
<!-- Generator: Adobe Illustrator 22.0.1, SVG Export Plug-In . SVG Version: 6.00 Build 0)  -->
<svg version="1.1" id="Layer_1" xmlns="http://www.w3.org/2000/svg" xmlns:xlink="http://www.w3.org/1999/xlink" x="0px" y="0px" viewBox="0 0 316 247.5" style="" xml:space="preserve">
<style type="text/css">
	.st0{fill:none;stroke:#FFFFFF;stroke-width:4.5139;stroke-miterlimit:10;}
	.st1{fill:#FFFFFF;}
	.st2{fill:none;stroke:#FFFFFF;stroke-width:7.5232;stroke-miterlimit:10;}
	.st3{fill:none;stroke:#FFFFFF;stroke-width:3.0093;stroke-miterlimit:10;}
	.st4{fill:none;stroke:#FFFFFF;stroke-width:3.0093;stroke-linecap:round;stroke-linejoin:round;stroke-miterlimit:10;}
</style>
<g>
	<g>
		<path class="st0 YeXZfFtv_0" d="M294.4,46.2L5.6,145.7L32.8,166l-9.1,32.3l288.9-99.6l-27-19.8L294.4,46.2z"></path>
	</g>
</g>
<path class="st1 YeXZfFtv_1" d="M153.7,78.4L145.3,76.7L139.8,83.3L138.8,74.7L130.9,71.5L138.7,67.9L139.3,59.4L145.1,65.7L153.5,63.7L
	149.2,71.1Z"></path>
<path class="st1 YeXZfFtv_2" d="M174.6,72.3L168.5,71L164.4,75.8L163.7,69.6L158,67.2L163.7,64.6L164.1,58.4L168.3,63L174.4,61.5L
	171.3,67Z"></path>
<path class="st1 YeXZfFtv_3" d="M192.6,73.5L188.3,72.6L185.4,76L184.9,71.6L180.8,69.9L184.9,68.1L185.2,63.7L188.2,66.9L192.5,65.9L
	190.3,69.7Z"></path>
<path class="st1 YeXZfFtv_4" d="M113.3,100.9L109,100L106.1,103.3L105.6,98.9L101.5,97.3L105.5,95.4L105.9,91L108.9,94.3L113.2,93.2L
	111,97.1Z"></path>
<path class="st1 YeXZfFtv_5" d="M129.2,87.9L123.1,86.7L119.1,91.4L118.4,85.2L112.6,82.9L118.3,80.3L118.8,74L123,78.7L129,77.2L
	126,82.6Z"></path>
<path class="st1 YeXZfFtv_6" d="M190.7,185.8L182.3,184.1L176.8,190.6L175.8,182.1L167.9,178.8L175.7,175.3L176.3,166.7L182.1,173.1L
	190.5,171L186.2,178.5Z"></path>
<path class="st1 YeXZfFtv_7" d="M208.2,169.8L202.1,168.6L198.1,173.3L197.4,167.1L191.6,164.8L197.3,162.2L197.7,155.9L202,160.6L
	208,159.1L204.9,164.5Z"></path>
<path class="st1 YeXZfFtv_8" d="M219.3,151L215,150.1L212.1,153.5L211.6,149.1L207.5,147.4L211.6,145.6L211.9,141.2L214.9,144.4L
	219.2,143.4L217,147.2Z"></path>
<path class="st1 YeXZfFtv_9" d="M140,178.4L135.7,177.5L132.8,180.8L132.3,176.4L128.2,174.8L132.3,172.9L132.6,168.5L135.6,171.8L
	139.9,170.7L137.7,174.6Z"></path>
<path class="st1 YeXZfFtv_10" d="M162.9,185.5L156.7,184.2L152.7,189L152,182.8L146.2,180.4L151.9,177.8L152.4,171.6L156.6,176.2L
	162.7,174.7L159.6,180.1Z"></path>
<g>
	<path class="st2 YeXZfFtv_11" d="M282,115.7c0.2,2.7,0.3,5.4,0.3,8.1c0,66.3-53.7,120-120,120c-41.3,0-77.7-20.8-99.3-52.6"></path>
	<path class="st2 YeXZfFtv_12" d="M42.3,126.7c0-1,0-1.9,0-2.9c0-66.3,53.7-120,120-120c39.4,0,74.4,19,96.3,48.4"></path>
</g>
<g>
	<path class="st0 YeXZfFtv_13" d="M243.9,128.8c-2.6,42.8-38.1,76.7-81.6,76.7c-24.3,0-46.1-10.6-61.1-27.4"></path>
	<path class="st0 YeXZfFtv_14" d="M81.2,113.3C86.3,73.1,120.7,42,162.3,42c22.4,0,42.6,9,57.4,23.5"></path>
</g>
<g>
	<path class="st3 YeXZfFtv_15" d="M272,119c0.1,1.6,0.1,3.2,0.1,4.8c0,60.7-49.2,109.9-109.9,109.9c-36.9,0-69.5-18.1-89.4-46"></path>
	<path class="st3 YeXZfFtv_16" d="M52.4,123.2c0.3-60.4,49.4-109.3,109.9-109.3c35,0,66.1,16.3,86.2,41.8"></path>
	<path class="st3 YeXZfFtv_17" d="M236.5,131.4c-3.8,37.6-35.6,67-74.2,67c-21.1,0-40.2-8.8-53.8-22.9"></path>
	<path class="st3 YeXZfFtv_18" d="M88.8,110.7c6.2-35,36.7-61.5,73.5-61.5c19.1,0,36.6,7.2,49.8,19"></path>
</g>
<g>
	<path class="st4 YeXZfFtv_19" d="M65.1,160.4l0.5,1.5c1,2.9,1.3,5.4,0.8,7.3c-0.5,2-2.1,3.4-4.7,4.3c-2.9,1-5.1,0.8-6.8-0.4
		c-1.7-1.3-3-3.4-4.1-6.4l-4.6-13.3c-1-3-1.2-5.5-0.7-7.5c0.6-2,2.3-3.5,5.1-4.5c2.6-0.9,4.7-0.8,6.3,0.4c1.6,1.1,2.9,3.1,3.9,6
		l0.5,1.6"></path>
	<path class="st4 YeXZfFtv_20" d="M209.6,110.9l0.5,1.5c1,2.9,1.3,5.4,0.8,7.3c-0.5,2-2.1,3.4-4.7,4.3c-2.9,1-5.1,0.8-6.8-0.4
		c-1.7-1.3-3-3.4-4.1-6.4l-4.6-13.3c-1-3-1.2-5.5-0.7-7.5c0.6-2,2.3-3.5,5.1-4.5c2.6-0.9,4.7-0.8,6.3,0.4c1.6,1.1,2.9,3.1,3.9,6
		l0.5,1.6"></path>
	<path class="st4 YeXZfFtv_21" d="M74.4,166.4c-1.7-1.2-3.1-3.3-4.1-6.3l-4.7-13.7c-1-2.9-1.2-5.3-0.6-7.3c0.6-2,2.3-3.5,5.1-4.4
		c2.8-1,5-0.8,6.8,0.3c1.7,1.2,3.1,3.2,4.1,6.1l4.7,13.7c1,2.9,1.2,5.4,0.6,7.4c-0.6,2-2.3,3.5-5.2,4.5
		C78.4,167.8,76.1,167.7,74.4,166.4z"></path>
	<path class="st4 YeXZfFtv_22" d="M94.8,161.6L84,130.4l0,0l24.9,26.4l0,0l-10.8-31.3"></path>
	<path class="st4 YeXZfFtv_23" d="M262,104l-10.8-31.3l0,0l24.9,26.4l0,0l-10.8-31.3"></path>
	<g>
		<path class="st4 YeXZfFtv_24" d="M136.9,129.1l-9.8,3.4 M132.6,148.6l-10.8-31.3l7.6-2.6c2.6-0.9,4.6-0.8,6.1,0.2c1.5,1,2.6,2.7,3.5,5.2
			c0.7,2,1,3.8,0.7,5.4c-0.2,1.5-1.1,2.8-2.8,3.6l10.6,14.4"></path>
	</g>
	<g>
		<path class="st4 YeXZfFtv_25" d="M152.2,141.9l-4.2-33.5l2.4-0.8l17.4,29 M150.8,130.9l11.3-3.9"></path>
	</g>
	<path class="st4 YeXZfFtv_26" d="M161.9,103.5l6.8-2.4c2.9-1,5.2-0.9,7,0.3c1.8,1.2,3.1,3.2,4.1,6l4.5,13c1,2.9,1.2,5.4,0.6,7.5
		c-0.6,2-2.3,3.5-5.2,4.5l-7,2.4L161.9,103.5z"></path>
	<path class="st4 YeXZfFtv_27" d="M242.7,108.3c-1.7-1.2-3.1-3.3-4.1-6.3l-4.7-13.7c-1-2.9-1.2-5.3-0.6-7.3c0.6-2,2.3-3.5,5.1-4.4
		c2.8-1,5-0.8,6.8,0.3c1.7,1.2,3.1,3.2,4.1,6.1l4.7,13.7c1,2.9,1.2,5.4,0.6,7.4c-0.6,2-2.3,3.5-5.2,4.5
		C246.7,109.7,244.4,109.6,242.7,108.3z"></path>
	<g>
		<path class="st4 YeXZfFtv_28" d="M101.9,124.2l15.2-5.3"></path>
		<path class="st4 YeXZfFtv_29" d="M120.4,152.8L109.6,121.6"></path>
	</g>
	<g>
		<path class="st4 YeXZfFtv_30" d="M206,88.3l15.2-5.3"></path>
		<path class="st4 YeXZfFtv_31" d="M224.5,116.9L213.7,85.6"></path>
	</g>
	<path class="st4 YeXZfFtv_32" d="M182.2,96.5L193.1,127.7"></path>
	<path class="st4 YeXZfFtv_33" d="M226,81.4L236.9,112.6"></path>
</g>
<style>.YeXZfFtv_0{stroke-dasharray:746 748;stroke-dashoffset:747;animation:YeXZfFtv_draw_0 4100ms linear 0ms infinite,YeXZfFtv_fade 4100ms linear 0ms infinite;}.YeXZfFtv_1{stroke-dasharray:86 88;stroke-dashoffset:87;animation:YeXZfFtv_draw_1 4100ms linear 0ms infinite,YeXZfFtv_fade 4100ms linear 0ms infinite;}.YeXZfFtv_2{stroke-dasharray:63 65;stroke-dashoffset:64;animation:YeXZfFtv_draw_2 4100ms linear 0ms infinite,YeXZfFtv_fade 4100ms linear 0ms infinite;}.YeXZfFtv_3{stroke-dasharray:45 47;stroke-dashoffset:46;animation:YeXZfFtv_draw_3 4100ms linear 0ms infinite,YeXZfFtv_fade 4100ms linear 0ms infinite;}.YeXZfFtv_4{stroke-dasharray:45 47;stroke-dashoffset:46;animation:YeXZfFtv_draw_4 4100ms linear 0ms infinite,YeXZfFtv_fade 4100ms linear 0ms infinite;}.YeXZfFtv_5{stroke-dasharray:63 65;stroke-dashoffset:64;animation:YeXZfFtv_draw_5 4100ms linear 0ms infinite,YeXZfFtv_fade 4100ms linear 0ms infinite;}.YeXZfFtv_6{stroke-dasharray:86 88;stroke-dashoffset:87;animation:YeXZfFtv_draw_6 4100ms linear 0ms infinite,YeXZfFtv_fade 4100ms linear 0ms infinite;}.YeXZfFtv_7{stroke-dasharray:63 65;stroke-dashoffset:64;animation:YeXZfFtv_draw_7 4100ms linear 0ms infinite,YeXZfFtv_fade 4100ms linear 0ms infinite;}.YeXZfFtv_8{stroke-dasharray:45 47;stroke-dashoffset:46;animation:YeXZfFtv_draw_8 4100ms linear 0ms infinite,YeXZfFtv_fade 4100ms linear 0ms infinite;}.YeXZfFtv_9{stroke-dasharray:45 47;stroke-dashoffset:46;animation:YeXZfFtv_draw_9 4100ms linear 0ms infinite,YeXZfFtv_fade 4100ms linear 0ms infinite;}.YeXZfFtv_10{stroke-dasharray:63 65;stroke-dashoffset:64;animation:YeXZfFtv_draw_10 4100ms linear 0ms infinite,YeXZfFtv_fade 4100ms linear 0ms infinite;}.YeXZfFtv_11{stroke-dasharray:314 316;stroke-dashoffset:315;animation:YeXZfFtv_draw_11 4100ms linear 0ms infinite,YeXZfFtv_fade 4100ms linear 0ms infinite;}.YeXZfFtv_12{stroke-dasharray:304 306;stroke-dashoffset:305;animation:YeXZfFtv_draw_12 4100ms linear 0ms infinite,YeXZfFtv_fade 4100ms linear 0ms infinite;}.YeXZfFtv_13{stroke-dasharray:193 195;stroke-dashoffset:194;animation:YeXZfFtv_draw_13 4100ms linear 0ms infinite,YeXZfFtv_fade 4100ms linear 0ms infinite;}.YeXZfFtv_14{stroke-dasharray:182 184;stroke-dashoffset:183;animation:YeXZfFtv_draw_14 4100ms linear 0ms infinite,YeXZfFtv_fade 4100ms linear 0ms infinite;}.YeXZfFtv_15{stroke-dasharray:282 284;stroke-dashoffset:283;animation:YeXZfFtv_draw_15 4100ms linear 0ms infinite,YeXZfFtv_fade 4100ms linear 0ms infinite;}.YeXZfFtv_16{stroke-dasharray:272 274;stroke-dashoffset:273;animation:YeXZfFtv_draw_16 4100ms linear 0ms infinite,YeXZfFtv_fade 4100ms linear 0ms infinite;}.YeXZfFtv_17{stroke-dasharray:170 172;stroke-dashoffset:171;animation:YeXZfFtv_draw_17 4100ms linear 0ms infinite,YeXZfFtv_fade 4100ms linear 0ms infinite;}.YeXZfFtv_18{stroke-dasharray:159 161;stroke-dashoffset:160;animation:YeXZfFtv_draw_18 4100ms linear 0ms infinite,YeXZfFtv_fade 4100ms linear 0ms infinite;}.YeXZfFtv_19{stroke-dasharray:75 77;stroke-dashoffset:76;animation:YeXZfFtv_draw_19 4100ms linear 0ms infinite,YeXZfFtv_fade 4100ms linear 0ms infinite;}.YeXZfFtv_20{stroke-dasharray:75 77;stroke-dashoffset:76;animation:YeXZfFtv_draw_20 4100ms linear 0ms infinite,YeXZfFtv_fade 4100ms linear 0ms infinite;}.YeXZfFtv_21{stroke-dasharray:88 90;stroke-dashoffset:89;animation:YeXZfFtv_draw_21 4100ms linear 0ms infinite,YeXZfFtv_fade 4100ms linear 0ms infinite;}.YeXZfFtv_22{stroke-dasharray:103 105;stroke-dashoffset:104;animation:YeXZfFtv_draw_22 4100ms linear 0ms infinite,YeXZfFtv_fade 4100ms linear 0ms infinite;}.YeXZfFtv_23{stroke-dasharray:103 105;stroke-dashoffset:104;animation:YeXZfFtv_draw_23 4100ms linear 0ms infinite,YeXZfFtv_fade 4100ms linear 0ms infinite;}.YeXZfFtv_24{stroke-dasharray:93 95;stroke-dashoffset:94;animation:YeXZfFtv_draw_24 4100ms linear 0ms infinite,YeXZfFtv_fade 4100ms linear 0ms infinite;}.YeXZfFtv_25{stroke-dasharray:83 85;stroke-dashoffset:84;animation:YeXZfFtv_draw_25 4100ms linear 0ms infinite,YeXZfFtv_fade 4100ms linear 0ms infinite;}.YeXZfFtv_26{stroke-dasharray:91 93;stroke-dashoffset:92;animation:YeXZfFtv_draw_26 4100ms linear 0ms infinite,YeXZfFtv_fade 4100ms linear 0ms infinite;}.YeXZfFtv_27{stroke-dasharray:88 90;stroke-dashoffset:89;animation:YeXZfFtv_draw_27 4100ms linear 0ms infinite,YeXZfFtv_fade 4100ms linear 0ms infinite;}.YeXZfFtv_28{stroke-dasharray:17 19;stroke-dashoffset:18;animation:YeXZfFtv_draw_28 4100ms linear 0ms infinite,YeXZfFtv_fade 4100ms linear 0ms infinite;}.YeXZfFtv_29{stroke-dasharray:34 36;stroke-dashoffset:35;animation:YeXZfFtv_draw_29 4100ms linear 0ms infinite,YeXZfFtv_fade 4100ms linear 0ms infinite;}.YeXZfFtv_30{stroke-dasharray:17 19;stroke-dashoffset:18;animation:YeXZfFtv_draw_30 4100ms linear 0ms infinite,YeXZfFtv_fade 4100ms linear 0ms infinite;}.YeXZfFtv_31{stroke-dasharray:34 36;stroke-dashoffset:35;animation:YeXZfFtv_draw_31 4100ms linear 0ms infinite,YeXZfFtv_fade 4100ms linear 0ms infinite;}.YeXZfFtv_32{stroke-dasharray:34 36;stroke-dashoffset:35;animation:YeXZfFtv_draw_32 4100ms linear 0ms infinite,YeXZfFtv_fade 4100ms linear 0ms infinite;}.YeXZfFtv_33{stroke-dasharray:34 36;stroke-dashoffset:35;animation:YeXZfFtv_draw_33 4100ms linear 0ms infinite,YeXZfFtv_fade 4100ms linear 0ms infinite;}@keyframes YeXZfFtv_draw{100%{stroke-dashoffset:0;}}@keyframes YeXZfFtv_fade{0%{stroke-opacity:1;}90.2439024390244%{stroke-opacity:1;}100%{stroke-opacity:0;}}@keyframes YeXZfFtv_draw_0{9.75609756097561%{stroke-dashoffset: 747}58.536585365853654%{ stroke-dashoffset: 0;}100%{ stroke-dashoffset: 0;}}@keyframes YeXZfFtv_draw_1{10.495195861049519%{stroke-dashoffset: 87}59.27568366592757%{ stroke-dashoffset: 0;}100%{ stroke-dashoffset: 0;}}@keyframes YeXZfFtv_draw_2{11.23429416112343%{stroke-dashoffset: 64}60.01478196600147%{ stroke-dashoffset: 0;}100%{ stroke-dashoffset: 0;}}@keyframes YeXZfFtv_draw_3{11.973392461197339%{stroke-dashoffset: 46}60.75388026607539%{ stroke-dashoffset: 0;}100%{ stroke-dashoffset: 0;}}@keyframes YeXZfFtv_draw_4{12.71249076127125%{stroke-dashoffset: 46}61.49297856614929%{ stroke-dashoffset: 0;}100%{ stroke-dashoffset: 0;}}@keyframes YeXZfFtv_draw_5{13.45158906134516%{stroke-dashoffset: 64}62.23207686622321%{ stroke-dashoffset: 0;}100%{ stroke-dashoffset: 0;}}@keyframes YeXZfFtv_draw_6{14.190687361419066%{stroke-dashoffset: 87}62.97117516629712%{ stroke-dashoffset: 0;}100%{ stroke-dashoffset: 0;}}@keyframes YeXZfFtv_draw_7{14.929785661492978%{stroke-dashoffset: 64}63.71027346637103%{ stroke-dashoffset: 0;}100%{ stroke-dashoffset: 0;}}@keyframes YeXZfFtv_draw_8{15.66888396156689%{stroke-dashoffset: 46}64.44937176644494%{ stroke-dashoffset: 0;}100%{ stroke-dashoffset: 0;}}@keyframes YeXZfFtv_draw_9{16.4079822616408%{stroke-dashoffset: 46}65.18847006651886%{ stroke-dashoffset: 0;}100%{ stroke-dashoffset: 0;}}@keyframes YeXZfFtv_draw_10{17.14708056171471%{stroke-dashoffset: 64}65.92756836659277%{ stroke-dashoffset: 0;}100%{ stroke-dashoffset: 0;}}@keyframes YeXZfFtv_draw_11{17.88617886178862%{stroke-dashoffset: 315}66.66666666666667%{ stroke-dashoffset: 0;}100%{ stroke-dashoffset: 0;}}@keyframes YeXZfFtv_draw_12{18.625277161862527%{stroke-dashoffset: 305}67.40576496674058%{ stroke-dashoffset: 0;}100%{ stroke-dashoffset: 0;}}@keyframes YeXZfFtv_draw_13{19.36437546193644%{stroke-dashoffset: 194}68.1448632668145%{ stroke-dashoffset: 0;}100%{ stroke-dashoffset: 0;}}@keyframes YeXZfFtv_draw_14{20.10347376201035%{stroke-dashoffset: 183}68.88396156688839%{ stroke-dashoffset: 0;}100%{ stroke-dashoffset: 0;}}@keyframes YeXZfFtv_draw_15{20.842572062084255%{stroke-dashoffset: 283}69.6230598669623%{ stroke-dashoffset: 0;}100%{ stroke-dashoffset: 0;}}@keyframes YeXZfFtv_draw_16{21.581670362158167%{stroke-dashoffset: 273}70.36215816703621%{ stroke-dashoffset: 0;}100%{ stroke-dashoffset: 0;}}@keyframes YeXZfFtv_draw_17{22.320768662232076%{stroke-dashoffset: 171}71.10125646711012%{ stroke-dashoffset: 0;}100%{ stroke-dashoffset: 0;}}@keyframes YeXZfFtv_draw_18{23.05986696230599%{stroke-dashoffset: 160}71.84035476718404%{ stroke-dashoffset: 0;}100%{ stroke-dashoffset: 0;}}@keyframes YeXZfFtv_draw_19{23.798965262379895%{stroke-dashoffset: 76}72.57945306725794%{ stroke-dashoffset: 0;}100%{ stroke-dashoffset: 0;}}@keyframes YeXZfFtv_draw_20{24.538063562453807%{stroke-dashoffset: 76}73.31855136733185%{ stroke-dashoffset: 0;}100%{ stroke-dashoffset: 0;}}@keyframes YeXZfFtv_draw_21{25.27716186252772%{stroke-dashoffset: 89}74.05764966740577%{ stroke-dashoffset: 0;}100%{ stroke-dashoffset: 0;}}@keyframes YeXZfFtv_draw_22{26.01626016260163%{stroke-dashoffset: 104}74.79674796747969%{ stroke-dashoffset: 0;}100%{ stroke-dashoffset: 0;}}@keyframes YeXZfFtv_draw_23{26.755358462675538%{stroke-dashoffset: 104}75.53584626755358%{ stroke-dashoffset: 0;}100%{ stroke-dashoffset: 0;}}@keyframes YeXZfFtv_draw_24{27.494456762749447%{stroke-dashoffset: 94}76.27494456762749%{ stroke-dashoffset: 0;}100%{ stroke-dashoffset: 0;}}@keyframes YeXZfFtv_draw_25{28.233555062823353%{stroke-dashoffset: 84}77.0140428677014%{ stroke-dashoffset: 0;}100%{ stroke-dashoffset: 0;}}@keyframes YeXZfFtv_draw_26{28.972653362897265%{stroke-dashoffset: 92}77.75314116777533%{ stroke-dashoffset: 0;}100%{ stroke-dashoffset: 0;}}@keyframes YeXZfFtv_draw_27{29.711751662971174%{stroke-dashoffset: 89}78.49223946784922%{ stroke-dashoffset: 0;}100%{ stroke-dashoffset: 0;}}@keyframes YeXZfFtv_draw_28{30.450849963045084%{stroke-dashoffset: 18}79.23133776792314%{ stroke-dashoffset: 0;}100%{ stroke-dashoffset: 0;}}@keyframes YeXZfFtv_draw_29{31.189948263119%{stroke-dashoffset: 35}79.97043606799706%{ stroke-dashoffset: 0;}100%{ stroke-dashoffset: 0;}}@keyframes YeXZfFtv_draw_30{31.9290465631929%{stroke-dashoffset: 18}80.70953436807096%{ stroke-dashoffset: 0;}100%{ stroke-dashoffset: 0;}}@keyframes YeXZfFtv_draw_31{32.66814486326682%{stroke-dashoffset: 35}81.44863266814485%{ stroke-dashoffset: 0;}100%{ stroke-dashoffset: 0;}}@keyframes YeXZfFtv_draw_32{33.40724316334073%{stroke-dashoffset: 35}82.18773096821877%{ stroke-dashoffset: 0;}100%{ stroke-dashoffset: 0;}}@keyframes YeXZfFtv_draw_33{34.146341463414636%{stroke-dashoffset: 35}82.92682926829268%{ stroke-dashoffset: 0;}100%{ stroke-dashoffset: 0;}}</style></svg>
